Nunito-600.ufo
<glyph name="comma" format="1">
  <advance width="610"/>
  <unicode hex="002C"/>
  <outline>
    <contour>
      <point x="149" y="-325" type="curve"/>
      <point x="223" y="-325" type="line"/>
      <point x="252" y="-326"/>
      <point x="268" y="-314"/>
      <point x="279" y="-282" type="curve" smooth="yes"/>
      <point x="448" y="201" type="line" smooth="yes"/>
      <point x="453" y="215"/>
      <point x="456" y="254"/>
      <point x="414" y="257" type="curve"/>
      <point x="282" y="257" type="line"/>
      <point x="250" y="256"/>
      <point x="217" y="248"/>
      <point x="209" y="201" type="curve" smooth="yes"/>
      <point x="125" y="-282" type="line" smooth="yes"/>
      <point x="123" y="-294"/>
      <point x="121" y="-324"/>
    </contour>
  </outline>
</glyph>
<glyph name="seven" format="1">
  <advance width="1203"/>
  <unicode hex="0037"/>
  <outline>
    <contour>
      <point x="466" y="0" type="curve" smooth="yes"/>
      <point x="507" y="0"/>
      <point x="551" y="20"/>
      <point x="572" y="69" type="curve" smooth="yes"/>
      <point x="1070" y="1214" type="line" smooth="yes"/>
      <point x="1085" y="1249"/>
      <point x="1093" y="1290"/>
      <point x="1093" y="1320" type="curve" smooth="yes"/>
      <point x="1093" y="1386"/>
      <point x="1051" y="1432"/>
      <point x="960" y="1432" type="curve" smooth="yes"/>
      <point x="192" y="1432" type="line" smooth="yes"/>
      <point x="129" y="1432"/>
      <point x="98" y="1381"/>
      <point x="98" y="1334" type="curve" smooth="yes"/>
      <point x="98" y="1287"/>
      <point x="129" y="1236"/>
      <point x="192" y="1236" type="curve" smooth="yes"/>
      <point x="821" y="1236" type="line"/>
      <point x="353" y="167" type="line" smooth="yes"/>
      <point x="344" y="148"/>
      <point x="338" y="129"/>
      <point x="339" y="113" type="curve"/>
      <point x="339" y="46"/>
      <point x="403" y="0"/>
    </contour>
  </outline>
</glyph>
<glyph name="D" format="1">
  <advance width="1528"/>
  <unicode hex="0044"/>
  <outline>
    <contour>
      <point x="752" y="1438" type="move" name="top"/>
    </contour>
    <contour>
      <point x="303" y="747" type="move" name="mid"/>
    </contour>
    <contour>
      <point x="298" y="1" type="curve" smooth="yes"/>
      <point x="660" y="1" type="line" smooth="yes"/>
      <point x="1137" y="1"/>
      <point x="1417" y="251"/>
      <point x="1417" y="713" type="curve" smooth="yes"/>
      <point x="1417" y="1178"/>
      <point x="1155" y="1436"/>
      <point x="642" y="1436" type="curve" smooth="yes"/>
      <point x="298" y="1436" type="line" smooth="yes"/>
      <point x="230" y="1436"/>
      <point x="174" y="1381"/>
      <point x="174" y="1314" type="curve" smooth="yes"/>
      <point x="174" y="122" type="line" smooth="yes"/>
      <point x="174" y="55"/>
      <point x="230" y="1"/>
    </contour>
    <contour>
      <point x="422" y="198" type="line"/>
      <point x="422" y="1239" type="line"/>
      <point x="645" y="1239" type="line" smooth="yes"/>
      <point x="994" y="1239"/>
      <point x="1160" y="1101"/>
      <point x="1160" y="718" type="curve" smooth="yes"/>
      <point x="1160" y="368"/>
      <point x="1042" y="198"/>
      <point x="675" y="198" type="curve" smooth="yes"/>
    </contour>
  </outline>
</glyph>
<glyph name="G" format="1">
  <advance width="1483"/>
  <unicode hex="0047"/>
  <outline>
    <contour>
      <point x="822" y="1436" type="move" name="top"/>
    </contour>
    <contour>
      <point x="826" y="0" type="move" name="bot"/>
    </contour>
    <contour>
      <point x="824" y="-22" type="curve" smooth="yes"/>
      <point x="986" y="-22"/>
      <point x="1148" y="15"/>
      <point x="1271" y="49" type="curve" smooth="yes"/>
      <point x="1331" y="65"/>
      <point x="1371" y="102"/>
      <point x="1371" y="181" type="curve" smooth="yes"/>
      <point x="1371" y="661" type="line" smooth="yes"/>
      <point x="1371" y="727"/>
      <point x="1338" y="773"/>
      <point x="1272" y="773" type="curve" smooth="yes"/>
      <point x="884" y="773" type="line" smooth="yes"/>
      <point x="829" y="773"/>
      <point x="802" y="718"/>
      <point x="802" y="677" type="curve" smooth="yes"/>
      <point x="802" y="637"/>
      <point x="829" y="584"/>
      <point x="884" y="584" type="curve" smooth="yes"/>
      <point x="1123" y="584" type="line"/>
      <point x="1123" y="212" type="line"/>
      <point x="1033" y="190"/>
      <point x="933" y="176"/>
      <point x="839" y="176" type="curve" smooth="yes"/>
      <point x="529" y="176"/>
      <point x="376" y="377"/>
      <point x="376" y="731" type="curve" smooth="yes"/>
      <point x="376" y="1049"/>
      <point x="510" y="1274"/>
      <point x="852" y="1274" type="curve" smooth="yes"/>
      <point x="983" y="1274"/>
      <point x="1095" y="1242"/>
      <point x="1206" y="1214" type="curve"/>
      <point x="1214" y="1211"/>
      <point x="1224" y="1210"/>
      <point x="1231" y="1210" type="curve" smooth="yes"/>
      <point x="1286" y="1210"/>
      <point x="1319" y="1266"/>
      <point x="1319" y="1314" type="curve" smooth="yes"/>
      <point x="1319" y="1347"/>
      <point x="1302" y="1381"/>
      <point x="1261" y="1399" type="curve" smooth="yes"/>
      <point x="1143" y="1447"/>
      <point x="1000" y="1472"/>
      <point x="844" y="1472" type="curve" smooth="yes"/>
      <point x="352" y="1472"/>
      <point x="114" y="1134"/>
      <point x="114" y="726" type="curve" smooth="yes"/>
      <point x="114" y="242"/>
      <point x="400" y="-22"/>
    </contour>
  </outline>
</glyph>
<glyph name="backslash" format="1">
  <advance width="618"/>
  <unicode hex="005C"/>
  <outline>
    <contour>
      <point x="548" y="-92" type="curve" smooth="yes"/>
      <point x="589" y="-92"/>
      <point x="630" y="-64"/>
      <point x="630" y="-16" type="curve" smooth="yes"/>
      <point x="630" y="-7"/>
      <point x="628" y="3"/>
      <point x="625" y="14" type="curve"/>
      <point x="150" y="1444" type="line"/>
      <point x="136" y="1484"/>
      <point x="104" y="1501"/>
      <point x="70" y="1501" type="curve" smooth="yes"/>
      <point x="29" y="1501"/>
      <point x="-13" y="1473"/>
      <point x="-13" y="1425" type="curve" smooth="yes"/>
      <point x="-13" y="1416"/>
      <point x="-11" y="1405"/>
      <point x="-7" y="1393" type="curve" smooth="yes"/>
      <point x="471" y="-36" type="line" smooth="yes"/>
      <point x="485" y="-76"/>
      <point x="516" y="-92"/>
    </contour>
  </outline>
</glyph>
<glyph name="b" format="1">
  <advance width="1207"/>
  <unicode hex="0062"/>
  <outline>
    <contour>
      <point x="693" y="-14" type="curve" smooth="yes"/>
      <point x="975" y="-14"/>
      <point x="1125" y="231"/>
      <point x="1125" y="506" type="curve" smooth="yes"/>
      <point x="1125" y="805"/>
      <point x="957" y="1013"/>
      <point x="679" y="1013" type="curve" smooth="yes"/>
      <point x="533" y="1013"/>
      <point x="426" y="958"/>
      <point x="360" y="848" type="curve"/>
      <point x="360" y="1333" type="line" smooth="yes"/>
      <point x="360" y="1401"/>
      <point x="305" y="1435"/>
      <point x="250" y="1435" type="curve" smooth="yes"/>
      <point x="195" y="1435"/>
      <point x="140" y="1401"/>
      <point x="140" y="1333" type="curve" smooth="yes"/>
      <point x="140" y="106" type="line" smooth="yes"/>
      <point x="140" y="37"/>
      <point x="197" y="1"/>
      <point x="251" y="1" type="curve" smooth="yes"/>
      <point x="315" y="1"/>
      <point x="360" y="32"/>
      <point x="360" y="106" type="curve" smooth="yes"/>
      <point x="360" y="161" type="line"/>
      <point x="428" y="40"/>
      <point x="545" y="-14"/>
    </contour>
    <contour>
      <point x="643" y="135" type="curve" smooth="yes"/>
      <point x="428" y="135"/>
      <point x="361" y="277"/>
      <point x="361" y="503" type="curve" smooth="yes"/>
      <point x="361" y="684"/>
      <point x="436" y="865"/>
      <point x="639" y="865" type="curve" smooth="yes"/>
      <point x="843" y="865"/>
      <point x="906" y="671"/>
      <point x="906" y="505" type="curve" smooth="yes"/>
      <point x="906" y="347"/>
      <point x="848" y="135"/>
    </contour>
  </outline>
</glyph>
<glyph name="y" format="1">
  <advance width="1066"/>
  <unicode hex="0079"/>
  <outline>
    <contour>
      <point x="573" y="1024" type="move" name="top"/>
    </contour>
    <contour>
      <point x="494" y="34" type="line"/>
      <point x="607" y="243" type="line"/>
      <point x="273" y="925" type="line" smooth="yes"/>
      <point x="207" y="1058"/>
      <point x="19" y="962"/>
      <point x="81" y="843" type="curve" smooth="yes"/>
    </contour>
    <contour>
      <point x="431" y="-355" type="curve" smooth="yes"/>
      <point x="1028" y="858" type="line" smooth="yes"/>
      <point x="1085" y="975"/>
      <point x="904" y="1071"/>
      <point x="837" y="937" type="curve" smooth="yes"/>
      <point x="245" y="-268" type="line" smooth="yes"/>
      <point x="189" y="-382"/>
      <point x="368" y="-481"/>
    </contour>
  </outline>
</glyph>
<glyph name="braceright" format="1">
  <advance width="682"/>
  <unicode hex="007D"/>
  <outline>
    <contour>
      <point x="98" y="-223" type="curve" smooth="yes"/>
      <point x="230" y="-223" type="line" smooth="yes"/>
      <point x="352" y="-223"/>
      <point x="447" y="-121"/>
      <point x="447" y="14" type="curve" smooth="yes"/>
      <point x="447" y="316" type="line" smooth="yes"/>
      <point x="447" y="456"/>
      <point x="472" y="529"/>
      <point x="589" y="539" type="curve"/>
      <point x="642" y="539"/>
      <point x="670" y="582"/>
      <point x="670" y="625" type="curve" smooth="yes"/>
      <point x="670" y="680"/>
      <point x="633" y="711"/>
      <point x="584" y="713" type="curve"/>
      <point x="470" y="724"/>
      <point x="447" y="801"/>
      <point x="447" y="937" type="curve" smooth="yes"/>
      <point x="447" y="1246" type="line" smooth="yes"/>
      <point x="447" y="1389"/>
      <point x="338" y="1479"/>
      <point x="230" y="1479" type="curve" smooth="yes"/>
      <point x="98" y="1479" type="line" smooth="yes"/>
      <point x="44" y="1479"/>
      <point x="19" y="1441"/>
      <point x="19" y="1397" type="curve" smooth="yes"/>
      <point x="19" y="1344"/>
      <point x="53" y="1313"/>
      <point x="102" y="1313" type="curve" smooth="yes"/>
      <point x="147" y="1313" type="line" smooth="yes"/>
      <point x="218" y="1313"/>
      <point x="233" y="1245"/>
      <point x="233" y="1142" type="curve" smooth="yes"/>
      <point x="233" y="890" type="line" smooth="yes"/>
      <point x="233" y="712"/>
      <point x="367" y="651"/>
      <point x="392" y="626" type="curve"/>
      <point x="349" y="609"/>
      <point x="233" y="541"/>
      <point x="233" y="363" type="curve" smooth="yes"/>
      <point x="233" y="105" type="line" smooth="yes"/>
      <point x="233" y="0"/>
      <point x="215" y="-58"/>
      <point x="149" y="-58" type="curve" smooth="yes"/>
      <point x="98" y="-58" type="line" smooth="yes"/>
      <point x="43" y="-58"/>
      <point x="19" y="-98"/>
      <point x="19" y="-141" type="curve" smooth="yes"/>
      <point x="19" y="-190"/>
      <point x="49" y="-223"/>
    </contour>
  </outline>
</glyph>
<glyph name="ordfeminine" format="1">
  <advance width="1073"/>
  <unicode hex="00AA"/>
  <outline>
    <contour>
      <point x="393" y="715" type="curve" smooth="yes"/>
      <point x="495" y="715"/>
      <point x="601" y="766"/>
      <point x="642" y="862" type="curve"/>
      <point x="643" y="801" type="line" smooth="yes"/>
      <point x="643" y="757"/>
      <point x="680" y="735"/>
      <point x="715" y="735" type="curve" smooth="yes"/>
      <point x="752" y="735"/>
      <point x="790" y="758"/>
      <point x="790" y="806" type="curve" smooth="yes"/>
      <point x="791" y="1240" type="line" smooth="yes"/>
      <point x="791" y="1434"/>
      <point x="667" y="1512"/>
      <point x="489" y="1512" type="curve" smooth="yes"/>
      <point x="353" y="1512"/>
      <point x="249" y="1477"/>
      <point x="198" y="1407" type="curve"/>
      <point x="189" y="1397"/>
      <point x="186" y="1387"/>
      <point x="186" y="1376" type="curve" smooth="yes"/>
      <point x="186" y="1350"/>
      <point x="207" y="1327"/>
      <point x="235" y="1327" type="curve" smooth="yes"/>
      <point x="244" y="1327"/>
      <point x="252" y="1329"/>
      <point x="259" y="1333" type="curve" smooth="yes"/>
      <point x="320" y="1364"/>
      <point x="380" y="1393"/>
      <point x="482" y="1393" type="curve" smooth="yes"/>
      <point x="576" y="1393"/>
      <point x="639" y="1357"/>
      <point x="639" y="1253" type="curve" smooth="yes"/>
      <point x="639" y="1197" type="line"/>
      <point x="615" y="1198"/>
      <point x="581" y="1199"/>
      <point x="559" y="1199" type="curve" smooth="yes"/>
      <point x="302" y="1199"/>
      <point x="134" y="1128"/>
      <point x="134" y="943" type="curve" smooth="yes"/>
      <point x="134" y="798"/>
      <point x="245" y="715"/>
    </contour>
    <contour>
      <point x="437" y="818" type="curve"/>
      <point x="355" y="821"/>
      <point x="288" y="862"/>
      <point x="288" y="952" type="curve" smooth="yes"/>
      <point x="288" y="1100"/>
      <point x="483" y="1100"/>
      <point x="639" y="1100" type="curve"/>
      <point x="639" y="1037" type="line"/>
      <point x="634" y="894"/>
      <point x="549" y="821"/>
    </contour>
  </outline>
</glyph>
<glyph name="onequarter" format="1">
  <advance width="1616"/>
  <unicode hex="00BC"/>
  <outline>
    <contour>
      <point x="1342" y="1" type="curve" smooth="yes"/>
      <point x="1372" y="1"/>
      <point x="1402" y="22"/>
      <point x="1402" y="64" type="curve" smooth="yes"/>
      <point x="1402" y="184" type="line"/>
      <point x="1479" y="184" type="line" smooth="yes"/>
      <point x="1513" y="184"/>
      <point x="1528" y="206"/>
      <point x="1528" y="228" type="curve" smooth="yes"/>
      <point x="1528" y="251"/>
      <point x="1512" y="272"/>
      <point x="1479" y="272" type="curve" smooth="yes"/>
      <point x="1402" y="272" type="line"/>
      <point x="1402" y="737" type="line" smooth="yes"/>
      <point x="1402" y="805"/>
      <point x="1366" y="838"/>
      <point x="1316" y="838" type="curve" smooth="yes"/>
      <point x="1270" y="838"/>
      <point x="1233" y="822"/>
      <point x="1201" y="764" type="curve"/>
      <point x="894" y="283" type="line" smooth="yes"/>
      <point x="885" y="269"/>
      <point x="881" y="255"/>
      <point x="881" y="242" type="curve" smooth="yes"/>
      <point x="881" y="209"/>
      <point x="907" y="184"/>
      <point x="949" y="184" type="curve" smooth="yes"/>
      <point x="1282" y="184" type="line"/>
      <point x="1282" y="64" type="line" smooth="yes"/>
      <point x="1282" y="22"/>
      <point x="1312" y="1"/>
    </contour>
    <contour>
      <point x="401" y="589" type="curve" smooth="yes"/>
      <point x="432" y="589"/>
      <point x="465" y="609"/>
      <point x="465" y="651" type="curve" smooth="yes"/>
      <point x="465" y="1334" type="line" smooth="yes"/>
      <point x="465" y="1380"/>
      <point x="437" y="1403"/>
      <point x="406" y="1403" type="curve" smooth="yes"/>
      <point x="393" y="1403"/>
      <point x="381" y="1400"/>
      <point x="371" y="1393" type="curve" smooth="yes"/>
      <point x="166" y="1267" type="line" smooth="yes"/>
      <point x="149" y="1256"/>
      <point x="142" y="1241"/>
      <point x="142" y="1227" type="curve" smooth="yes"/>
      <point x="142" y="1201"/>
      <point x="163" y="1176"/>
      <point x="191" y="1176" type="curve" smooth="yes"/>
      <point x="201" y="1176"/>
      <point x="209" y="1179"/>
      <point x="218" y="1184" type="curve" smooth="yes"/>
      <point x="338" y="1260" type="line"/>
      <point x="338" y="651" type="line" smooth="yes"/>
      <point x="338" y="609"/>
      <point x="368" y="589"/>
    </contour>
    <contour>
      <point x="544" y="-78" type="curve" smooth="yes"/>
      <point x="571" y="-78"/>
      <point x="599" y="-64"/>
      <point x="611" y="-30" type="curve" smooth="yes"/>
      <point x="1081" y="1353" type="line"/>
      <point x="1084" y="1364"/>
      <point x="1086" y="1373"/>
      <point x="1086" y="1381" type="curve" smooth="yes"/>
      <point x="1086" y="1423"/>
      <point x="1050" y="1447"/>
      <point x="1013" y="1447" type="curve" smooth="yes"/>
      <point x="986" y="1447"/>
      <point x="957" y="1432"/>
      <point x="946" y="1398" type="curve" smooth="yes"/>
      <point x="478" y="15" type="line"/>
      <point x="475" y="5"/>
      <point x="473" y="-5"/>
      <point x="473" y="-12" type="curve" smooth="yes"/>
      <point x="473" y="-53"/>
      <point x="509" y="-78"/>
    </contour>
    <contour>
      <point x="1000" y="271" type="line"/>
      <point x="1282" y="723" type="line"/>
      <point x="1282" y="271" type="line"/>
    </contour>
  </outline>
</glyph>
<glyph name="Dcroat" format="1">
  <advance width="1517"/>
  <unicode hex="0110"/>
  <outline>
    <contour>
      <point x="81" y="649" type="curve" smooth="yes"/>
      <point x="552" y="649" type="line" smooth="yes"/>
      <point x="612" y="649"/>
      <point x="650" y="680"/>
      <point x="650" y="728" type="curve" smooth="yes"/>
      <point x="650" y="778"/>
      <point x="612" y="809"/>
      <point x="552" y="809" type="curve" smooth="yes"/>
      <point x="90" y="809" type="line" smooth="yes"/>
      <point x="30" y="809"/>
      <point x="-8" y="778"/>
      <point x="-8" y="728" type="curve" smooth="yes"/>
      <point x="-8" y="680"/>
      <point x="26" y="649"/>
    </contour>
    <component base="D"/>
  </outline>
</glyph>
<glyph name="Hbar" format="1">
  <advance width="1502"/>
  <unicode hex="0126"/>
  <outline>
    <contour>
      <point x="113" y="1018" type="curve"/>
      <point x="1390" y="1018" type="line"/>
      <point x="1434" y="1018"/>
      <point x="1459" y="1043"/>
      <point x="1459" y="1076" type="curve" smooth="yes"/>
      <point x="1459" y="1109"/>
      <point x="1434" y="1135"/>
      <point x="1390" y="1135" type="curve" smooth="yes"/>
      <point x="113" y="1135" type="line" smooth="yes"/>
      <point x="70" y="1135"/>
      <point x="45" y="1109"/>
      <point x="45" y="1076" type="curve" smooth="yes"/>
      <point x="45" y="1043"/>
      <point x="70" y="1018"/>
    </contour>
    <component base="H"/>
  </outline>
</glyph>
<glyph name="Eng" format="1">
  <advance width="1545"/>
  <unicode hex="014A"/>
  <outline>
    <contour>
      <point x="635" y="-427" type="curve" smooth="yes"/>
      <point x="1097" y="-538"/>
      <point x="1375" y="-457"/>
      <point x="1375" y="49" type="curve"/>
      <point x="1375" y="350" type="line"/>
      <point x="1154" y="353" type="line"/>
      <point x="1154" y="-7" type="line" smooth="yes"/>
      <point x="1154" y="-302"/>
      <point x="1021" y="-348"/>
      <point x="670" y="-259" type="curve" smooth="yes"/>
      <point x="545" y="-227"/>
      <point x="490" y="-392"/>
    </contour>
    <component base="N"/>
  </outline>
</glyph>
<glyph name="OE" format="1">
  <advance width="1997"/>
  <unicode hex="0152"/>
  <outline>
    <contour>
      <point x="725" y="-25" type="curve" smooth="yes"/>
      <point x="846" y="-25"/>
      <point x="1054" y="-1"/>
      <point x="1079" y="-1" type="curve" smooth="yes"/>
      <point x="1792" y="-1" type="line" smooth="yes"/>
      <point x="1853" y="-1"/>
      <point x="1885" y="46"/>
      <point x="1885" y="92" type="curve" smooth="yes"/>
      <point x="1885" y="138"/>
      <point x="1853" y="185"/>
      <point x="1792" y="185" type="curve" smooth="yes"/>
      <point x="1285" y="185" type="line"/>
      <point x="1285" y="643" type="line"/>
      <point x="1733" y="643" type="line" smooth="yes"/>
      <point x="1794" y="643"/>
      <point x="1827" y="688"/>
      <point x="1827" y="735" type="curve" smooth="yes"/>
      <point x="1827" y="781"/>
      <point x="1794" y="828"/>
      <point x="1733" y="828" type="curve" smooth="yes"/>
      <point x="1285" y="828" type="line"/>
      <point x="1285" y="1248" type="line"/>
      <point x="1770" y="1248" type="line" smooth="yes"/>
      <point x="1832" y="1248"/>
      <point x="1863" y="1295"/>
      <point x="1863" y="1342" type="curve" smooth="yes"/>
      <point x="1863" y="1387"/>
      <point x="1832" y="1435"/>
      <point x="1770" y="1435" type="curve" smooth="yes"/>
      <point x="1101" y="1435" type="line" smooth="yes"/>
      <point x="1076" y="1435"/>
      <point x="871" y="1458"/>
      <point x="742" y="1458" type="curve" smooth="yes"/>
      <point x="344" y="1458"/>
      <point x="106" y="1174"/>
      <point x="106" y="717" type="curve" smooth="yes"/>
      <point x="106" y="262"/>
      <point x="346" y="-25"/>
    </contour>
    <contour>
      <point x="738" y="152" type="curve"/>
      <point x="471" y="152"/>
      <point x="353" y="409"/>
      <point x="353" y="719" type="curve" smooth="yes"/>
      <point x="353" y="1029"/>
      <point x="476" y="1281"/>
      <point x="739" y="1281" type="curve" smooth="yes"/>
      <point x="931" y="1281"/>
      <point x="1036" y="1262"/>
      <point x="1045" y="1259" type="curve"/>
      <point x="1045" y="179" type="line"/>
      <point x="1038" y="174"/>
      <point x="921" y="155"/>
    </contour>
  </outline>
</glyph>
<glyph name="hungarumlaut" format="1">
  <advance width="569"/>
  <unicode hex="02DD"/>
  <outline>
    <contour>
      <point x="174" y="1040" type="move" name="_top"/>
    </contour>
    <contour>
      <point x="-6" y="1109" type="curve" smooth="yes"/>
      <point x="9" y="1109"/>
      <point x="24" y="1114"/>
      <point x="39" y="1127" type="curve" smooth="yes"/>
      <point x="357" y="1381" type="line" smooth="yes"/>
      <point x="376" y="1396"/>
      <point x="383" y="1416"/>
      <point x="383" y="1435" type="curve" smooth="yes"/>
      <point x="383" y="1485"/>
      <point x="328" y="1538"/>
      <point x="275" y="1538" type="curve" smooth="yes"/>
      <point x="251" y="1538"/>
      <point x="229" y="1529"/>
      <point x="210" y="1504" type="curve"/>
      <point x="-45" y="1192" type="line" smooth="yes"/>
      <point x="-54" y="1181"/>
      <point x="-56" y="1170"/>
      <point x="-57" y="1159" type="curve"/>
      <point x="-57" y="1131"/>
      <point x="-35" y="1109"/>
    </contour>
    <contour>
      <point x="356" y="1109" type="curve" smooth="yes"/>
      <point x="372" y="1109"/>
      <point x="386" y="1114"/>
      <point x="402" y="1127" type="curve" smooth="yes"/>
      <point x="719" y="1381" type="line" smooth="yes"/>
      <point x="738" y="1396"/>
      <point x="746" y="1417"/>
      <point x="746" y="1435" type="curve" smooth="yes"/>
      <point x="746" y="1485"/>
      <point x="690" y="1538"/>
      <point x="637" y="1538" type="curve" smooth="yes"/>
      <point x="614" y="1538"/>
      <point x="591" y="1529"/>
      <point x="573" y="1504" type="curve"/>
      <point x="317" y="1192" type="line" smooth="yes"/>
      <point x="308" y="1181"/>
      <point x="306" y="1170"/>
      <point x="306" y="1159" type="curve" smooth="yes"/>
      <point x="306" y="1131"/>
      <point x="327" y="1109"/>
    </contour>
  </outline>
</glyph>
<glyph name="commaaccent" format="1">
  <advance width="610"/>
  <unicode hex="0326"/>
  <outline>
    <contour>
      <point x="329" y="0" type="move" name="_bot"/>
    </contour>
    <contour>
      <point x="150" y="-626" type="curve"/>
      <point x="218" y="-626" type="line"/>
      <point x="247" y="-627"/>
      <point x="263" y="-615"/>
      <point x="274" y="-583" type="curve" smooth="yes"/>
      <point x="425" y="-160" type="line" smooth="yes"/>
      <point x="430" y="-146"/>
      <point x="433" y="-107"/>
      <point x="391" y="-104" type="curve"/>
      <point x="271" y="-104" type="line"/>
      <point x="239" y="-105"/>
      <point x="206" y="-113"/>
      <point x="198" y="-160" type="curve" smooth="yes"/>
      <point x="126" y="-583" type="line" smooth="yes"/>
      <point x="124" y="-595"/>
      <point x="122" y="-625"/>
    </contour>
  </outline>
</glyph>
<glyph name="Delta" format="1">
  <advance width="1279"/>
  <unicode hex="0394"/>
  <outline>
    <contour>
      <point x="16" y="0" type="line"/>
      <point x="1264" y="0" type="line"/>
      <point x="761" y="1377" type="line" smooth="yes"/>
      <point x="715" y="1481"/>
      <point x="554" y="1476"/>
      <point x="518" y="1377" type="curve" smooth="yes"/>
    </contour>
    <contour>
      <point x="258" y="128" type="line"/>
      <point x="636" y="1223" type="line"/>
      <point x="1022" y="128" type="line"/>
    </contour>
  </outline>
</glyph>
<glyph name="pi" format="1">
  <advance width="1268"/>
  <unicode hex="03C0"/>
  <outline>
    <contour>
      <point x="975" y="-16" type="curve" smooth="yes"/>
      <point x="1181" y="12"/>
      <point x="1029" y="151"/>
      <point x="1029" y="465" type="curve" smooth="yes"/>
      <point x="1029" y="906" type="line"/>
      <point x="1113" y="906" type="line" smooth="yes"/>
      <point x="1169" y="906"/>
      <point x="1197" y="949"/>
      <point x="1197" y="992" type="curve" smooth="yes"/>
      <point x="1197" y="1034"/>
      <point x="1169" y="1077"/>
      <point x="1113" y="1077" type="curve" smooth="yes"/>
      <point x="208" y="1077" type="line" smooth="yes"/>
      <point x="142" y="1077"/>
      <point x="109" y="1034"/>
      <point x="109" y="992" type="curve" smooth="yes"/>
      <point x="109" y="949"/>
      <point x="142" y="906"/>
      <point x="208" y="906" type="curve" smooth="yes"/>
      <point x="287" y="906" type="line"/>
      <point x="287" y="641"/>
      <point x="212" y="348"/>
      <point x="125" y="107" type="curve" smooth="yes"/>
      <point x="73" y="-27"/>
      <point x="300" y="-73"/>
      <point x="358" y="72" type="curve" smooth="yes"/>
      <point x="431" y="258"/>
      <point x="480" y="642"/>
      <point x="489" y="906" type="curve"/>
      <point x="822" y="906" type="line"/>
      <point x="822" y="417" type="line" smooth="yes"/>
      <point x="822" y="25"/>
      <point x="860" y="-33"/>
    </contour>
  </outline>
</glyph>
<glyph name="guilsinglleft" format="1">
  <advance width="609"/>
  <unicode hex="2039"/>
  <outline>
    <contour>
      <point x="411" y="74" type="curve" smooth="yes"/>
      <point x="452" y="74"/>
      <point x="489" y="105"/>
      <point x="489" y="146" type="curve" smooth="yes"/>
      <point x="489" y="156"/>
      <point x="487" y="167"/>
      <point x="482" y="176" type="curve" smooth="yes"/>
      <point x="315" y="538" type="line"/>
      <point x="482" y="900" type="line" smooth="yes"/>
      <point x="487" y="909"/>
      <point x="489" y="920"/>
      <point x="489" y="930" type="curve" smooth="yes"/>
      <point x="489" y="971"/>
      <point x="452" y="1002"/>
      <point x="411" y="1002" type="curve" smooth="yes"/>
      <point x="379" y="1002"/>
      <point x="347" y="985"/>
      <point x="322" y="943" type="curve"/>
      <point x="92" y="538" type="line"/>
      <point x="322" y="133" type="line" smooth="yes"/>
      <point x="346" y="90"/>
      <point x="380" y="74"/>
    </contour>
  </outline>
</glyph>
<glyph name="fraction" format="1">
  <advance width="618"/>
  <unicode hex="2044"/>
  <outline>
    <contour>
      <point x="71" y="-68" type="curve" smooth="yes"/>
      <point x="103" y="-68"/>
      <point x="133" y="-50"/>
      <point x="147" y="-10" type="curve"/>
      <point x="625" y="1419" type="line" smooth="yes"/>
      <point x="629" y="1431"/>
      <point x="631" y="1441"/>
      <point x="631" y="1451" type="curve" smooth="yes"/>
      <point x="631" y="1499"/>
      <point x="590" y="1528"/>
      <point x="548" y="1528" type="curve" smooth="yes"/>
      <point x="514" y="1528"/>
      <point x="481" y="1511"/>
      <point x="468" y="1470" type="curve" smooth="yes"/>
      <point x="-7" y="40" type="line" smooth="yes"/>
      <point x="-11" y="29"/>
      <point x="-12" y="19"/>
      <point x="-12" y="10" type="curve" smooth="yes"/>
      <point x="-12" y="-39"/>
      <point x="29" y="-68"/>
    </contour>
  </outline>
</glyph>
<glyph name="infinity" format="1">
  <advance width="1633"/>
  <unicode hex="221E"/>
  <outline>
    <contour>
      <point x="425" y="253" type="curve" smooth="yes"/>
      <point x="596" y="253"/>
      <point x="707" y="369"/>
      <point x="819" y="496" type="curve"/>
      <point x="962" y="324"/>
      <point x="1075" y="253"/>
      <point x="1201" y="253" type="curve" smooth="yes"/>
      <point x="1369" y="253"/>
      <point x="1530" y="383"/>
      <point x="1530" y="599" type="curve" smooth="yes"/>
      <point x="1530" y="602" type="line" smooth="yes"/>
      <point x="1530" y="800"/>
      <point x="1394" y="932"/>
      <point x="1210" y="932" type="curve" smooth="yes"/>
      <point x="1030" y="932"/>
      <point x="925" y="799"/>
      <point x="827" y="690" type="curve"/>
      <point x="716" y="823"/>
      <point x="599" y="932"/>
      <point x="442" y="932" type="curve" smooth="yes"/>
      <point x="248" y="932"/>
      <point x="102" y="789"/>
      <point x="102" y="589" type="curve" smooth="yes"/>
      <point x="102" y="395"/>
      <point x="254" y="253"/>
    </contour>
    <contour>
      <point x="441" y="372" type="line"/>
      <point x="312" y="372"/>
      <point x="229" y="472"/>
      <point x="229" y="590" type="curve" smooth="yes"/>
      <point x="229" y="715"/>
      <point x="305" y="816"/>
      <point x="430" y="816" type="curve" smooth="yes"/>
      <point x="574" y="816"/>
      <point x="663" y="699"/>
      <point x="751" y="585" type="curve"/>
      <point x="670" y="495"/>
      <point x="571" y="372"/>
      <point x="444" y="372" type="curve" smooth="yes"/>
    </contour>
    <contour>
      <point x="1207" y="372" type="curve" smooth="yes"/>
      <point x="1100" y="372"/>
      <point x="1023" y="441"/>
      <point x="889" y="596" type="curve"/>
      <point x="961" y="673"/>
      <point x="1065" y="816"/>
      <point x="1200" y="816" type="curve" smooth="yes"/>
      <point x="1203" y="816" type="line" smooth="yes"/>
      <point x="1318" y="816"/>
      <point x="1404" y="729"/>
      <point x="1404" y="590" type="curve" smooth="yes"/>
      <point x="1404" y="486"/>
      <point x="1333" y="372"/>
    </contour>
  </outline>
</glyph>
<glyph name="fi" format="1">
  <advance width="1215"/>
  <unicode hex="FB01"/>
  <outline>
    <contour>
      <point x="325" y="1" type="curve" smooth="yes"/>
      <point x="380" y="1"/>
      <point x="435" y="37"/>
      <point x="435" y="109" type="curve" smooth="yes"/>
      <point x="435" y="849" type="line"/>
      <point x="853" y="849" type="line"/>
      <point x="853" y="109" type="line" smooth="yes"/>
      <point x="853" y="35"/>
      <point x="906" y="0"/>
      <point x="962" y="0" type="curve" smooth="yes"/>
      <point x="1017" y="0"/>
      <point x="1073" y="38"/>
      <point x="1073" y="109" type="curve" smooth="yes"/>
      <point x="1073" y="889" type="line" smooth="yes"/>
      <point x="1073" y="963"/>
      <point x="1016" y="997"/>
      <point x="960" y="997" type="curve" smooth="yes"/>
      <point x="435" y="997" type="line"/>
      <point x="435" y="1028" type="line" smooth="yes"/>
      <point x="435" y="1241"/>
      <point x="442" y="1290"/>
      <point x="556" y="1290" type="curve" smooth="yes"/>
      <point x="588" y="1290"/>
      <point x="616" y="1282"/>
      <point x="650" y="1282" type="curve" smooth="yes"/>
      <point x="694" y="1282"/>
      <point x="718" y="1321"/>
      <point x="718" y="1360" type="curve" smooth="yes"/>
      <point x="718" y="1392"/>
      <point x="701" y="1424"/>
      <point x="664" y="1435" type="curve" smooth="yes"/>
      <point x="610" y="1449"/>
      <point x="555" y="1456"/>
      <point x="500" y="1456" type="curve" smooth="yes"/>
      <point x="320" y="1456"/>
      <point x="216" y="1361"/>
      <point x="216" y="1092" type="curve" smooth="yes"/>
      <point x="216" y="997" type="line"/>
      <point x="99" y="997" type="line" smooth="yes"/>
      <point x="46" y="997"/>
      <point x="20" y="961"/>
      <point x="20" y="924" type="curve" smooth="yes"/>
      <point x="20" y="886"/>
      <point x="46" y="849"/>
      <point x="99" y="849" type="curve" smooth="yes"/>
      <point x="216" y="849" type="line"/>
      <point x="216" y="109" type="line" smooth="yes"/>
      <point x="216" y="37"/>
      <point x="270" y="1"/>
    </contour>
    <contour>
      <point x="963" y="1226" type="curve" smooth="yes"/>
      <point x="1041" y="1226"/>
      <point x="1096" y="1272"/>
      <point x="1096" y="1334" type="curve" smooth="yes"/>
      <point x="1096" y="1395"/>
      <point x="1041" y="1442"/>
      <point x="963" y="1442" type="curve" smooth="yes"/>
      <point x="885" y="1442"/>
      <point x="830" y="1395"/>
      <point x="830" y="1334" type="curve" smooth="yes"/>
      <point x="830" y="1273"/>
      <point x="885" y="1226"/>
    </contour>
  </outline>
</glyph>
